<?xml version="1.0" encoding="UTF-8"?>
<svg version="1.1" xmlns="http://www.w3.org/2000/svg" width="512" height="512">
<path d="M0 0 C10.46838436 8.17351331 17.29360792 19.38187068 19.35546875 32.58203125 C20.79614432 46.92018339 18.11558478 60.75929324 8.87486362 72.16191673 C1.31767226 80.52563796 -6.68010557 88.44578648 -14.65844727 96.40478516 C-16.29543695 98.04149236 -17.93220566 99.67842061 -19.56877136 101.31555176 C-23.98734937 105.73441534 -28.40899225 110.15020033 -32.83121228 114.56541872 C-37.46145286 119.18938575 -42.08884032 123.81620626 -46.71653748 128.44271851 C-54.47607766 136.19967548 -62.23752501 143.9547205 -70.00024414 151.70849609 C-77.9913334 159.69038835 -85.98135829 167.67334362 -93.9699707 175.65771484 C-94.46344746 176.15092887 -94.95692421 176.64414291 -95.46535481 177.15230282 C-97.94129218 179.62693503 -100.41720883 182.101588 -102.89311516 184.57625127 C-123.3916762 205.06446717 -143.89389679 225.54901857 -164.3984375 246.03125 C-160.24729642 250.98407485 -155.92780304 255.6361725 -151.33935547 260.18367004 C-150.65242552 260.86863216 -149.96549557 261.55359427 -149.25774956 262.25931281 C-146.97107888 264.5383065 -144.68083883 266.8136787 -142.390625 269.08911133 C-140.74407787 270.72882318 -139.0977831 272.36878848 -137.45172119 274.00898743 C-133.91392873 277.53347754 -130.37472814 281.05654544 -126.83453369 284.57862282 C-121.23314978 290.15210786 -115.63721249 295.73104197 -110.04248047 301.311203 C-108.12455875 303.22400128 -106.20661174 305.13677419 -104.28866577 307.04954815 C-103.80945399 307.52747389 -103.33024222 308.00539964 -102.83650887 308.49780798 C-97.39115128 313.92845544 -91.94490677 319.35821286 -86.49804688 324.78735352 C-86.00059047 325.28319518 -85.50313406 325.77903685 -84.99060321 326.28990402 C-76.92908218 334.3248892 -68.86196765 342.35423913 -60.79323268 350.38197915 C-52.49361787 358.6397863 -44.2017307 366.90529906 -35.91648293 375.17752093 C-31.27048344 379.81545741 -26.62085165 384.44961848 -21.96234131 389.07499123 C-17.58053529 393.42568089 -13.20817022 397.78563972 -8.84276581 402.15278435 C-7.24269346 403.75016744 -5.63920177 405.3441342 -4.03199005 406.9343338 C8.12879312 418.97198763 19.2697893 431.0523118 20.6015625 449.03125 C20.653125 449.66933594 20.7046875 450.30742187 20.7578125 450.96484375 C21.35523306 464.53126889 16.78892677 476.91120197 8.2890625 487.34375 C0.1952025 496.06158599 -12.06319974 502.80035201 -24.03515625 503.3671875 C-40.22857626 503.65720939 -53.62998122 500.59753269 -65.77410221 489.14218998 C-67.27525995 487.65503659 -68.76574365 486.15705453 -70.24708557 484.65016174 C-71.4938185 483.40643867 -71.4938185 483.40643867 -72.76573795 482.13758987 C-75.04761293 479.85727947 -77.32034881 477.56831113 -79.5893892 475.27524269 C-82.04763577 472.79546256 -84.51761411 470.32741453 -86.98617554 467.85791016 C-91.25570187 463.5836753 -95.51797327 459.30231688 -99.77542305 455.01605415 C-105.93963398 448.81032746 -112.11595697 442.61676849 -118.29541051 436.42622399 C-128.33419416 426.36895686 -138.36474963 416.30352698 -148.3894043 406.23217773 C-148.98848329 405.63031212 -149.58756228 405.0284465 -150.20479517 404.40834253 C-150.80461069 403.80573595 -151.40442621 403.20312937 -152.02241796 402.58226198 C-160.5254804 394.03966694 -169.03047684 385.49900374 -177.5378418 376.96069336 C-178.43580816 376.05945445 -178.43580816 376.05945445 -179.35191525 375.1400087 C-189.34606809 365.1097663 -199.34431645 355.08361276 -209.3446545 345.05953735 C-215.50406757 338.88497853 -221.65929977 332.7063046 -227.80909871 326.52216982 C-232.02439229 322.28367551 -236.24312188 318.04862253 -240.46452469 313.81621284 C-242.89663948 311.37746073 -245.32704637 308.93706734 -247.75296211 306.49214745 C-250.38959209 303.83653466 -253.03241138 301.18723263 -255.67677307 298.5393219 C-256.43359881 297.773942 -257.19042454 297.00856211 -257.97018439 296.21998888 C-262.24344079 291.95573991 -266.64713259 288.13438968 -271.4933123 284.53079838 C-281.21119616 276.88172788 -285.92100246 263.94193002 -287.3984375 252.03125 C-288.68259558 237.13952207 -284.5979273 223.30157175 -275.0859375 211.78125 C-272.62884187 209.15677189 -270.08981897 206.96146856 -267.20511341 204.8210907 C-262.36417925 201.09890567 -258.09054913 196.98345338 -253.80412292 192.64379883 C-252.58022267 191.4171701 -252.58022267 191.4171701 -251.33159715 190.16576099 C-248.61886045 187.4446604 -245.91336582 184.7164744 -243.20776367 181.98828125 C-241.25653865 180.02714092 -239.30373479 178.0675757 -237.35093689 176.10800171 C-233.1558077 171.89692063 -228.96410103 167.68245833 -224.77446556 163.46591187 C-218.14479022 156.79414904 -211.50517691 150.13232476 -204.86408997 143.47192383 C-202.587507 141.18846231 -200.31100099 138.90492408 -198.03452778 136.62135315 C-197.46573985 136.05079356 -196.89695191 135.48023398 -196.31092798 134.89238471 C-189.84858954 128.4095849 -183.38860705 121.92443942 -176.92944336 115.43847656 C-176.33955764 114.84614829 -175.74967193 114.25382002 -175.14191089 113.64354241 C-165.5822035 104.04382494 -156.02844408 94.43820361 -146.47596987 84.83128941 C-136.64916399 74.9489658 -126.81267085 65.07635219 -116.96805745 55.21176815 C-110.90659276 49.13726602 -104.85320921 43.05493165 -98.8101655 36.96210265 C-94.66554478 32.78465288 -90.5117856 28.61643513 -86.35087701 24.45520902 C-83.95502737 22.05859641 -81.56491301 19.65693415 -79.18286133 17.24656296 C-60.76101855 -1.38531245 -60.76101855 -1.38531245 -50.3984375 -5.96875 C-49.60141513 -6.32568436 -48.80439276 -6.68261871 -47.98321819 -7.05036926 C-32.54655535 -13.38769885 -13.21711028 -8.98915858 0 0 Z " fill="#000000" transform="translate(389.3984375,8.96875)"/>
</svg>
