<?xml version="1.0" encoding="UTF-8"?>
<svg version="1.1" xmlns="http://www.w3.org/2000/svg" width="512" height="512">
<path d="M0 0 C1.6919885 -0.00935994 1.6919885 -0.00935994 3.41815859 -0.01890898 C7.17039285 -0.03477079 10.92197135 -0.02226076 14.67420959 -0.00964355 C17.37555821 -0.01506772 20.07686276 -0.02204822 22.77819824 -0.03088379 C29.33740281 -0.04861331 35.89642366 -0.04485385 42.45563524 -0.03323323 C47.78995334 -0.02417637 53.12422018 -0.02298461 58.45854378 -0.02732849 C59.21958842 -0.02794142 59.98063305 -0.02855436 60.76473965 -0.02918586 C62.31110602 -0.03046485 63.85747237 -0.0317617 65.4038387 -0.03307623 C79.88371568 -0.04446591 94.36349116 -0.03139408 108.84335149 -0.00987476 C121.24861023 0.00799116 133.65371919 0.00489319 146.05897522 -0.0135498 C160.4877214 -0.03499129 174.91637872 -0.04336364 189.34513861 -0.03110075 C190.88592087 -0.02982665 192.42670314 -0.02856916 193.96748543 -0.02732849 C195.10442696 -0.02640284 195.10442696 -0.02640284 196.26433701 -0.02545848 C201.58734816 -0.02201513 206.91030261 -0.02781203 212.23330498 -0.0372467 C218.72741286 -0.04850476 225.22132754 -0.04534733 231.7154135 -0.02412373 C235.02436282 -0.01366348 238.33292708 -0.01158434 241.64188385 -0.02272034 C245.23919323 -0.03370761 248.83560837 -0.01987223 252.43286133 0 C253.46430564 -0.00892289 254.49574996 -0.01784577 255.55845016 -0.02703905 C267.46273322 0.09985941 277.12395182 3.99415154 286.27992249 11.50793457 C286.99019592 12.08156738 287.70046936 12.6552002 288.43226624 13.24621582 C297.98964947 21.81300655 301.86026293 33.09203904 303.27992249 45.50793457 C303.57273094 51.47062213 303.59154132 57.42485766 303.59877014 63.39367676 C303.60808573 65.1688278 303.61825678 66.94397453 303.62921143 68.71911621 C303.65634184 73.50336789 303.67161013 78.2875904 303.68463945 83.07189846 C303.70034477 88.08472955 303.72711113 93.09750174 303.75267029 98.11029053 C303.79932768 107.58718145 303.83613464 117.06408362 303.86934316 126.54103017 C303.90765704 137.33678653 303.95704274 148.13248354 304.00732732 158.92818975 C304.11045308 181.12139411 304.19977603 203.3146361 304.27992249 225.50793457 C305.28369934 225.83116699 306.2874762 226.15439941 307.32167053 226.48742676 C308.66590627 226.92631298 310.01005875 227.36545425 311.35414124 227.80480957 C312.34166382 228.12167725 312.34166382 228.12167725 313.34913635 228.44494629 C324.72546575 232.18223321 333.76664117 238.07481598 342.27992249 246.50793457 C343.16679749 247.33293457 344.05367249 248.15793457 344.96742249 249.00793457 C361.02997079 266.37285166 367.39982038 286.53549284 366.65492249 309.94934082 C365.75102665 326.56125155 359.17453575 342.86685658 348.27992249 355.50793457 C347.72175842 356.21949707 347.16359436 356.93105957 346.58851624 357.66418457 C337.25585901 369.04262261 323.30242584 377.60043343 309.07118225 381.08850098 C307.98756912 381.3553067 306.90395599 381.62211243 305.7875061 381.89700317 C304.54625221 382.19941422 304.54625221 382.19941422 303.27992249 382.50793457 C303.28436371 383.14527527 303.28880493 383.78261597 303.29338074 384.43927002 C303.33792019 391.12375629 303.36791494 397.80819982 303.38978577 404.49279785 C303.39979061 406.98142207 303.41339871 409.47003469 303.43080139 411.95861816 C303.45529361 415.55321124 303.46646112 419.14764774 303.47523499 422.74230957 C303.48555756 423.83968445 303.49588013 424.93705933 303.5065155 426.06768799 C303.5087545 441.78157203 300.58019268 455.35265119 289.46742249 467.00793457 C278.52892386 477.0859159 267.41144777 480.98100851 252.67337036 480.89561462 C251.54552689 480.90100016 250.41768341 480.9063857 249.25566286 480.91193444 C245.49809293 480.92617635 241.74087715 480.91911938 237.98329163 480.9119873 C235.28047783 480.91605147 232.57768182 480.92455776 229.87487793 480.93278503 C223.30855161 480.94993402 216.74232114 480.95082123 210.17597825 480.94557213 C204.83638895 480.94152213 199.49682787 480.94298382 194.15723991 480.94832039 C193.01503664 480.94944302 193.01503664 480.94944302 191.84975855 480.95058833 C190.30258492 480.95211989 188.75541131 480.95365824 187.2082377 480.9552033 C172.71697095 480.96891407 158.22575827 480.96350054 143.73449277 480.95201809 C130.49259327 480.94208581 117.2508335 480.95502879 104.00895555 480.97895228 C90.3930519 481.00336511 76.77721328 481.01294588 63.1612882 481.00629956 C55.52460919 481.00281236 47.88803761 481.00500637 40.2513752 481.02255058 C33.75100236 481.03729987 27.25081264 481.03787249 20.75044329 481.02047967 C17.43751044 481.01198963 14.12517166 481.01195364 10.8122139 481.02513123 C7.21232247 481.0383544 3.61331224 481.02678032 0.01345825 481.00914001 C-1.02158102 481.01874502 -2.0566203 481.02835003 -3.1230244 481.0382461 C-15.59073188 480.91302327 -27.34450293 475.76313018 -36.47007751 467.25793457 C-47.8083808 455.06592374 -50.32569218 440.90443415 -50.22801208 424.88415527 C-50.23262847 423.22417563 -50.23898632 421.56420008 -50.24692106 419.90423298 C-50.26353628 415.37096714 -50.25540376 410.83804046 -50.24297619 406.30477381 C-50.23389589 401.40489116 -50.24791017 396.50506532 -50.25889587 391.60519409 C-50.27665393 382.01749047 -50.2728532 372.42991233 -50.26124531 362.84220386 C-50.25220058 355.04795985 -50.25099149 347.25375093 -50.25534058 339.45950317 C-50.25595351 338.34889851 -50.25656644 337.23829384 -50.25719795 336.09403449 C-50.25847689 333.83764767 -50.25977374 331.58126085 -50.26108831 329.32487404 C-50.27248616 308.18185603 -50.25939287 287.03890747 -50.23788685 265.89590085 C-50.2200166 247.76621846 -50.22312093 229.63663854 -50.24156189 211.50695801 C-50.26298263 190.43802168 -50.2713876 169.36914616 -50.25911283 148.30020046 C-50.25783868 146.05225564 -50.2565812 143.80431081 -50.25534058 141.55636597 C-50.25441492 139.89745007 -50.25441492 139.89745007 -50.25347057 138.20502073 C-50.25002129 130.42288996 -50.25583693 122.64079787 -50.26525879 114.8586731 C-50.2764935 105.37091181 -50.27340772 95.88328285 -50.25213581 86.39553666 C-50.24164527 81.55755601 -50.2374695 76.71979574 -50.25073242 71.88181686 C-50.26270353 67.44790059 -50.25601643 63.01440776 -50.23482221 58.58052957 C-50.23037607 56.98176628 -50.2325774 55.38296677 -50.24232537 53.78422701 C-50.32755514 38.63688422 -47.07498919 25.16133372 -36.47007751 13.75793457 C-26.23568081 4.21929729 -13.80870058 -0.11919943 0 0 Z M63.27992249 32.50793457 C63.27992249 169.78793457 63.27992249 307.06793457 63.27992249 448.50793457 C171.49616145 466.90694744 171.49616145 466.90694744 265.43617249 443.82434082 C265.87960999 443.24555176 266.32304749 442.6667627 266.77992249 442.07043457 C267.24398499 441.49422363 267.70804749 440.9180127 268.18617249 440.32434082 C270.31455497 436.78970562 270.40329302 433.33659565 270.39344788 429.28039551 C270.39337234 428.23961853 270.39329681 427.19884155 270.39321899 426.12652588 C270.38805771 425.0097345 270.38289642 423.89294312 270.37757874 422.74230957 C270.37616379 421.59377502 270.37474884 420.44524048 270.37329102 419.26190186 C270.36769392 415.59388626 270.35514192 411.92593172 270.34242249 408.25793457 C270.33740711 405.77095629 270.33284427 403.28397704 270.32875061 400.79699707 C270.31772544 394.70062207 270.30099017 388.60428268 270.27992249 382.50793457 C269.12161926 382.10816406 267.96331604 381.70839355 266.76991272 381.29650879 C265.23021523 380.76040079 263.69058671 380.22409471 262.15101624 379.68762207 C261.38994568 379.42553955 260.62887512 379.16345703 259.84474182 378.89343262 C249.279542 375.20002314 240.69266572 369.88137396 232.27992249 362.50793457 C231.57996155 361.90336426 230.88000061 361.29879395 230.15882874 360.67590332 C216.19552983 347.74692285 208.13110724 327.68193976 207.07679749 308.88684082 C206.78781678 285.35899478 213.7711471 264.4413131 230.21742249 247.13293457 C240.01958949 237.94701382 251.81851868 231.58527651 264.52259827 227.40319824 C266.14066879 226.8690052 266.14066879 226.8690052 267.79142761 226.32402039 C268.61263092 226.05471207 269.43383423 225.78540375 270.27992249 225.50793457 C270.35001133 202.29015005 270.40291009 179.07238298 270.435359 155.85451412 C270.45082622 145.07399394 270.47191304 134.29353951 270.50624084 123.51306152 C270.53614756 114.1165249 270.55549854 104.7200359 270.56218797 95.32345301 C270.56609805 90.34828043 270.5752844 85.37324407 270.59711266 80.39811516 C270.61749784 75.71387501 270.62375215 71.02982701 270.61924553 66.34554672 C270.62006982 64.62787774 270.62602336 62.91020222 270.63753891 61.19257164 C270.65251505 58.84322945 270.64885777 56.49460808 270.64068604 54.14524841 C270.64345141 52.83169341 270.64621679 51.51813841 270.64906597 50.16477871 C270.08416024 44.56865613 268.53389652 40.79040801 264.52992249 36.69543457 C258.52447791 32.65330841 254.14382714 32.41968055 247.02992249 32.46496582 C245.76664124 32.47116943 244.50335999 32.47737305 243.20179749 32.48376465 C241.75546936 32.49572876 241.75546936 32.49572876 240.27992249 32.50793457 C240.27627686 33.68477814 240.27263123 34.8616217 240.26887512 36.0741272 C240.23192319 47.16839682 240.17414811 58.26238892 240.09601974 69.35644722 C240.05652194 75.05994945 240.02434462 80.76329675 240.00892639 86.46691895 C239.99377519 91.97194459 239.95935642 97.47654437 239.91161346 102.98138046 C239.89678391 105.08086316 239.88888057 107.18040666 239.88803864 109.27994156 C239.88567202 112.2224485 239.85861631 115.16377562 239.82582092 118.1060791 C239.83336647 119.40620186 239.83336647 119.40620186 239.84106445 120.73258972 C239.74806297 126.13101767 238.84726303 129.20994716 235.27992249 133.50793457 C231.58940121 136.53463617 227.60470018 137.8577274 222.84242249 137.63293457 C212.26965635 135.73019567 203.99158735 126.05778227 196.22279358 119.20812988 C193.12772953 116.49965714 189.98726946 113.84577845 186.84242249 111.19543457 C185.99985901 110.48447632 185.99985901 110.48447632 185.14027405 109.75915527 C183.85417922 108.67459745 182.56716572 107.59112913 181.27992249 106.50793457 C178.54629495 107.77730404 176.35711827 109.13202123 174.10023499 111.12512207 C173.50799133 111.64405029 172.91574768 112.16297852 172.30555725 112.69763184 C171.67834778 113.25378174 171.05113831 113.80993164 170.40492249 114.38293457 C169.06255726 115.55620627 167.72010731 116.72938104 166.37757874 117.90246582 C164.36155885 119.67310701 162.34863048 121.44694736 160.3419342 123.22814941 C158.51475947 124.8491911 156.67907175 126.46014538 154.84242249 128.07043457 C154.30053284 128.55818359 153.75864319 129.04593262 153.20033264 129.54846191 C148.35059624 133.784046 143.22971088 137.08653623 136.77992249 138.00793457 C131.46039703 137.24800236 127.0543007 135.3967888 123.34242249 131.44543457 C120.87013005 126.9371366 121.10772394 122.53500448 121.07460022 117.53845215 C121.06470062 116.62117844 121.05480103 115.70390472 121.04460144 114.75883484 C121.01298469 111.72340486 120.98822825 108.68795922 120.96351624 105.65246582 C120.94294687 103.54924612 120.9219504 101.44603055 120.90054321 99.34281921 C120.84532082 93.80428413 120.79591224 88.26571173 120.74769592 82.72711182 C120.68865528 76.08325361 120.62242635 69.43946368 120.55739594 62.79566193 C120.4593843 52.69979447 120.37052963 42.60388344 120.27992249 32.50793457 C101.46992249 32.50793457 82.65992249 32.50793457 63.27992249 32.50793457 Z M286.77992249 287.82043457 C285.95750061 288.6563916 285.13507874 289.49234863 284.28773499 290.3536377 C282.27806913 292.39835586 280.27579762 294.4497682 278.27992249 296.50793457 C277.48328186 295.98501831 277.48328186 295.98501831 276.67054749 295.45153809 C275.96414124 294.99706299 275.25773499 294.54258789 274.52992249 294.07434082 C273.83382874 293.62260498 273.13773499 293.17086914 272.42054749 292.70544434 C269.08887229 290.84163653 266.08018345 290.13232738 262.27992249 290.50793457 C256.96098588 292.16767574 253.31658235 294.77074518 250.27992249 299.50793457 C249.05594474 303.17986781 248.55396018 306.70495771 249.27992249 310.50793457 C252.36372972 316.08098467 256.77882819 320.30576521 261.27992249 324.75793457 C261.99148499 325.47723145 262.70304749 326.19652832 263.43617249 326.93762207 C264.12710999 327.62598145 264.81804749 328.31434082 265.52992249 329.02355957 C266.15382874 329.64520996 266.77773499 330.26686035 267.42054749 330.90734863 C270.61908133 333.66070839 273.38605297 334.80822108 277.59242249 334.88293457 C278.3104303 334.91129395 279.02843811 334.93965332 279.76820374 334.96887207 C286.7016129 333.69648905 291.61596675 328.6180011 296.38539124 323.80090332 C297.35512627 322.83547356 297.35512627 322.83547356 298.3444519 321.85054016 C299.70187417 320.49514869 301.05555831 319.13600411 302.40565491 317.77331543 C304.46142921 315.70147469 306.53272226 313.64613182 308.60609436 311.59191895 C309.92932288 310.26670782 311.25162038 308.94056629 312.57289124 307.61340332 C313.18650009 307.00586716 313.80010895 306.39833099 314.43231201 305.77238464 C319.19980206 300.92685823 323.85420139 295.66950947 323.84242249 288.50793457 C323.61423147 283.33822768 322.01771506 280.0583444 318.27992249 276.50793457 C314.45324052 273.87177588 311.01810381 272.88591234 306.32923889 273.1048584 C298.2814457 274.68776364 292.2035701 282.22453756 286.77992249 287.82043457 Z " fill="#000000" transform="translate(97.72007751464844,15.4920654296875)"/>
</svg>
