<?xml version="1.0" encoding="UTF-8"?>
<svg version="1.1" xmlns="http://www.w3.org/2000/svg" width="512" height="512">
<path d="M0 0 C1.50332539 -0.00679667 1.50332539 -0.00679667 3.03702098 -0.01373065 C6.38148365 -0.02634913 9.72578294 -0.0247559 13.07026672 -0.02310181 C15.47397063 -0.02908869 17.87767261 -0.0358946 20.28137207 -0.04345703 C26.12538597 -0.05927684 31.96935066 -0.06556478 37.81338491 -0.06668179 C42.56756976 -0.06763428 47.32174136 -0.07175461 52.07592201 -0.07808304 C65.57584192 -0.09568551 79.0757301 -0.10492361 92.57566156 -0.10342209 C93.30252384 -0.10334218 94.02938613 -0.10326227 94.77827454 -0.10317993 C95.86991032 -0.10305729 95.86991032 -0.10305729 96.98359934 -0.10293217 C108.76930764 -0.10211983 120.55488796 -0.12124696 132.34055927 -0.14945666 C144.46252742 -0.17824067 156.58443328 -0.19199389 168.70643646 -0.19026911 C175.50373449 -0.18960705 182.3008984 -0.19501808 189.09816551 -0.21662521 C195.49470885 -0.23604359 201.89096974 -0.23610714 208.28752327 -0.22159195 C210.62834462 -0.21950717 212.96918381 -0.22418487 215.30997467 -0.23631287 C234.84899979 -0.33094885 251.66059504 1.85751081 266.58711243 15.87289429 C278.92703506 29.3087248 284.10610901 43.96818978 284.05375671 62.03051758 C284.05828783 63.18735278 284.06281894 64.34418799 284.06748736 65.53607881 C284.07790972 68.72487618 284.07946543 71.91353065 284.07709861 75.10233951 C284.07668861 78.5503694 284.08774709 81.9983663 284.09721375 85.44638062 C284.11378611 92.19397288 284.11932161 98.94153019 284.1204385 105.68914111 C284.12139091 111.17841005 284.12551081 116.66766752 284.13183975 122.15693283 C284.14944307 137.74363844 284.15868022 153.33031658 284.1571788 168.9170322 C284.15709889 169.75630946 284.15701898 170.59558672 284.15693665 171.46029663 C284.15685488 172.30060706 284.15677312 173.14091748 284.15668888 174.00669186 C284.15587658 187.61453855 284.17500261 201.2222744 284.20321338 214.83008905 C284.23199739 228.82565786 284.2457506 242.82117272 284.24402583 256.81677186 C284.24336375 264.66486888 284.24877533 272.51284973 284.27038193 280.36091995 C284.28866667 287.04491292 284.29288174 293.7287371 284.27936308 300.41274436 C284.27286935 303.81730455 284.27479256 307.22127972 284.29006958 310.62585068 C284.38046747 332.17625161 283.2876983 350.75312289 267.78633118 367.39633179 C255.70018929 378.70348406 242.03341729 384.58996691 225.57266235 384.53485107 C224.06933697 384.54164774 224.06933697 384.54164774 222.53564137 384.54858172 C219.1911787 384.56120021 215.84687941 384.55960697 212.50239563 384.55795288 C210.09869173 384.56393976 207.69498975 384.57074568 205.29129028 384.57830811 C199.44727638 384.59412791 193.60331169 384.60041586 187.75927744 384.60153286 C183.0050926 384.60248536 178.25092099 384.60660568 173.49674034 384.61293411 C159.99682044 384.63053658 146.49693225 384.63977469 132.99700079 384.63827316 C132.27013851 384.63819325 131.54327623 384.63811334 130.79438782 384.63803101 C130.06663063 384.63794924 129.33887345 384.63786748 128.58906301 384.63778324 C116.80335472 384.6369709 105.01777439 384.65609803 93.23210309 384.68430774 C81.11013493 384.71309175 68.98822907 384.72684497 56.8662259 384.72512019 C50.06892786 384.72445813 43.27176395 384.72986916 36.47449684 384.75147629 C30.0779535 384.77089466 23.68169261 384.77095821 17.28513908 384.75644302 C14.94431774 384.75435824 12.60347854 384.75903595 10.26268768 384.77116394 C-9.47747487 384.86677412 -26.11639695 382.48422821 -41.27226257 368.40414429 C-47.89715103 361.11276806 -53.36830245 352.74706584 -56.21366882 343.26742554 C-56.5535637 342.13718208 -56.89345858 341.00693863 -57.2436533 339.84244537 C-58.57610708 334.43473049 -58.50023404 329.09803322 -58.48782349 323.5553894 C-58.49306017 322.39194708 -58.49829684 321.22850476 -58.50369221 320.02980661 C-58.51605697 316.81788215 -58.51953688 313.6060939 -58.5190953 310.39415026 C-58.52074997 306.92290297 -58.53382872 303.45169494 -58.54528809 299.98046875 C-58.5680891 292.39746591 -58.57605372 284.81449114 -58.58111453 277.23145866 C-58.58437789 272.49009156 -58.59090431 267.74873253 -58.59811592 263.00737 C-58.6176771 249.86160291 -58.63408359 236.7158433 -58.63699245 223.57006073 C-58.63718002 222.72962987 -58.63736759 221.88919902 -58.63756085 221.02330056 C-58.63792708 219.31977304 -58.63829078 217.61624552 -58.63865196 215.912718 C-58.63883477 215.06716406 -58.63901758 214.22161013 -58.63920593 213.35043335 C-58.63938648 212.5038385 -58.63956703 211.65724366 -58.63975305 210.78499442 C-58.64329135 197.08073878 -58.67029432 183.3766406 -58.70770382 169.67243952 C-58.74586675 155.57858593 -58.76515052 141.48481031 -58.76545197 127.39090395 C-58.76603482 119.48739661 -58.77441471 111.58407703 -58.80344963 103.68061829 C-58.82807089 96.94793167 -58.83517467 90.21550127 -58.8202021 83.48278171 C-58.81307616 80.05380521 -58.81370077 76.62533352 -58.8366127 73.19641495 C-58.94252474 53.98395619 -58.14006157 38.18714979 -46.21366882 22.26742554 C-45.75347351 21.62547241 -45.2932782 20.98351929 -44.81913757 20.32211304 C-34.05886101 6.49190166 -17.03002488 -0.05702194 0 0 Z M-18.21366882 40.26742554 C-22.29108429 45.77536281 -25.3313515 50.99991798 -25.35068321 57.95026493 C-25.35575776 58.91845506 -25.3608323 59.88664518 -25.36606061 60.88417441 C-25.36655837 61.95029831 -25.36705613 63.01642222 -25.36756897 64.11485291 C-25.37195122 65.24558808 -25.37633348 66.37632325 -25.38084853 67.54132313 C-25.39425999 71.35049758 -25.4004207 75.15964889 -25.40653992 78.96884155 C-25.41391169 81.69194316 -25.42270278 84.41503991 -25.43132019 87.13813782 C-25.45584393 95.32535668 -25.47047229 103.51258162 -25.48338026 111.69982591 C-25.48709253 114.01273642 -25.49106574 116.32564633 -25.49513292 118.63855624 C-25.52037226 133.00429642 -25.54242339 147.37003756 -25.55486107 161.73579502 C-25.55779073 165.06347723 -25.56075239 168.39115942 -25.56376648 171.71884155 C-25.56451253 172.54591285 -25.56525858 173.37298415 -25.56602724 174.22511821 C-25.57867514 187.61687967 -25.61189037 201.00850819 -25.65356831 214.40020753 C-25.69601748 228.15260259 -25.71955963 241.90492966 -25.72478163 255.65739006 C-25.72819262 263.37746884 -25.73991057 271.09733997 -25.77288437 278.8173542 C-25.80092727 285.3936856 -25.81186579 291.96976677 -25.80068891 298.54615331 C-25.79551256 301.89954673 -25.80106319 305.25199331 -25.82315445 308.60538101 C-25.84584052 312.24772675 -25.83755143 315.88875981 -25.82167053 319.53111267 C-25.83555262 320.58162152 -25.84943471 321.63213038 -25.86373746 322.71447283 C-25.77252844 331.22498476 -23.29209118 337.63646583 -17.77616882 344.14242554 C-9.00924404 351.41255829 -0.71280137 352.58086088 10.42549133 352.52139282 C11.34169565 352.5245128 12.25789997 352.52763278 13.20186806 352.53084731 C16.24311055 352.53876468 19.28415003 352.53252825 22.32539368 352.5262146 C24.51751318 352.52892724 26.70963178 352.53248971 28.90174866 352.53683472 C34.83554584 352.54592842 40.76927324 352.5424269 46.70307159 352.53607655 C52.92304671 352.53100093 59.14301598 352.53571234 65.36299133 352.53884888 C76.47515253 352.54271657 87.58728636 352.53651463 98.69944215 352.5263302 C108.75901978 352.51739566 118.81855125 352.518948 128.87812805 352.52816772 C140.5816821 352.53888927 152.28520924 352.54284493 163.98876762 352.5369432 C170.17612186 352.53383066 176.36344434 352.53339447 182.55079651 352.54001617 C188.36865137 352.54580791 194.18641933 352.54175925 200.00426483 352.53022766 C202.13509731 352.52759086 204.26593714 352.52832937 206.39676666 352.53275299 C209.31366572 352.53824863 212.23028933 352.53132578 215.14717102 352.52139282 C215.98279383 352.52585427 216.81841663 352.53031571 217.67936134 352.53491235 C227.95652252 352.4674075 235.33943041 350.78436763 243.34883118 344.14242554 C249.78157823 336.55508286 251.52547262 329.34992192 251.42124939 319.57821655 C251.42904934 318.44150041 251.4368493 317.30478426 251.44488561 316.13362217 C251.4647404 312.34585688 251.44906523 308.55910354 251.43330383 304.77133179 C251.43733365 302.04717957 251.44880746 299.32306957 251.45985413 296.59893799 C251.48202969 289.98074502 251.4773109 283.36283636 251.46279092 276.74463248 C251.45147618 271.36354483 251.44997741 265.98253658 251.45541 260.60144043 C251.45617617 259.83413213 251.45694233 259.06682384 251.45773172 258.27626377 C251.45933042 256.7172504 251.46095149 255.15823706 251.46259467 253.59922373 C251.47683552 238.99730554 251.46048565 224.39554458 251.43359284 209.79365218 C251.41125553 197.27799533 251.41513613 184.76257039 251.43818665 172.24691772 C251.46497415 157.6954959 251.47546238 143.14421171 251.46012533 128.59276867 C251.45853266 127.03964935 251.45696081 125.48653001 251.45541 123.93341064 C251.45463863 123.16934499 251.45386725 122.40527933 251.4530725 121.61806017 C251.44876433 116.24651971 251.45602293 110.87506692 251.46780777 105.50354004 C251.48186418 98.95295067 251.47796729 92.40266067 251.45140405 85.85210538 C251.43830716 82.51287444 251.4357546 79.17455236 251.44964981 75.8352623 C251.46334787 72.20855878 251.44613461 68.58324961 251.42124939 64.95663452 C251.432403 63.91090051 251.44355661 62.86516649 251.4550482 61.78774357 C251.34235825 53.29950572 248.85064359 46.88174274 243.34883118 40.39242554 C234.58190639 33.12229279 226.28546373 31.9539902 215.14717102 32.01345825 C214.2309667 32.01033827 213.31476238 32.00721829 212.3707943 32.00400376 C209.3295518 31.99608639 206.28851233 32.00232282 203.24726868 32.00863647 C201.05514917 32.00592383 198.86303058 32.00236137 196.6709137 31.99801636 C190.73711651 31.98892265 184.80338912 31.99242417 178.86959076 31.99877453 C172.64961565 32.00385014 166.42964637 31.99913874 160.20967102 31.9960022 C149.09750982 31.9921345 137.98537599 31.99833645 126.87322021 32.00852087 C116.81364257 32.01745541 106.75411111 32.01590307 96.6945343 32.00668335 C84.99098025 31.99596181 73.28745312 31.99200614 61.58389473 31.99790788 C55.3965405 32.00102041 49.20921802 32.00145661 43.02186584 31.9948349 C37.20401099 31.98904316 31.38624303 31.99309183 25.56839752 32.00462341 C23.43756504 32.00726022 21.30672521 32.00652171 19.17589569 32.00209808 C16.25899663 31.99660244 13.34237303 32.0035253 10.42549133 32.01345825 C9.17205712 32.00676609 9.17205712 32.00676609 7.89330101 31.99993873 C-1.87046664 32.06407139 -10.87790985 33.39365139 -18.21366882 40.26742554 Z " fill="#fff" transform="translate(207.2136688232422,-0.267425537109375)"/>
<path d="M0 0 C1.28293945 -0.04350586 1.28293945 -0.04350586 2.59179688 -0.08789062 C8.58906547 -0.14736011 13.06457066 0.90488878 18.0625 4.3125 C22.70555954 9.19366515 23.41978013 13.27950606 23.34375 19.80859375 C22.7872527 24.76296555 20.03956409 27.45175306 16.4375 30.625 C13.28241842 32.86676849 11.65001504 33.43247209 7.84375 33.48828125 C-4.23547245 33.78755682 -15.10656696 34.06104634 -23.9375 43.3125 C-27.07537475 48.45821101 -29.05882051 53.25130797 -29.07451439 59.32330418 C-29.07958893 60.36464561 -29.08466347 61.40598704 -29.08989179 62.47888428 C-29.09063843 64.20063501 -29.09063843 64.20063501 -29.09140015 65.95716858 C-29.0957824 67.17365835 -29.10016465 68.39014812 -29.1046797 69.64350122 C-29.11575033 73.0264992 -29.12229402 76.4094509 -29.12686086 79.79246032 C-29.13281646 83.43885921 -29.14442652 87.08524104 -29.15515137 90.73162842 C-29.17967798 99.54176782 -29.19430375 108.35191287 -29.20721143 117.16207591 C-29.21092345 119.65073641 -29.21489668 122.13939635 -29.2189641 124.62805629 C-29.24420283 140.08371503 -29.26625506 155.53937467 -29.27869225 170.99504948 C-29.28162193 174.57539435 -29.28458359 178.15573919 -29.28759766 181.73608398 C-29.28834371 182.62595819 -29.28908976 183.5158324 -29.28985842 184.43267249 C-29.30250765 198.84290726 -29.33572454 213.25301851 -29.37739949 227.66319556 C-29.41984071 242.45972202 -29.44338988 257.2561853 -29.44861281 272.05277246 C-29.45202466 280.35970403 -29.4637529 288.66644267 -29.49671555 296.97331429 C-29.52474745 304.04920108 -29.53570173 311.12485539 -29.52452008 318.20079339 C-29.51934119 321.80923875 -29.52216906 325.41719749 -29.54698563 329.02557182 C-29.57370576 332.94355939 -29.56139117 336.8608876 -29.54550171 340.77894592 C-29.5593838 341.91116469 -29.57326588 343.04338346 -29.58756864 344.20991188 C-29.49994815 352.99186542 -27.13263891 359.34016514 -21.625 366.1875 C-12.74700405 373.20731075 -3.94762786 373.46292891 6.98007202 373.44621277 C8.07001138 373.44847833 9.15995075 373.45074388 10.28291857 373.45307809 C13.9299969 373.45940112 17.5770379 373.45858982 21.22412109 373.45776367 C23.84105985 373.46075619 26.45799817 373.46415894 29.07493591 373.46794128 C35.4424537 373.47623406 41.80996223 373.47899549 48.17748497 373.47955366 C53.35458793 373.48002942 58.53168784 373.48208714 63.70878983 373.48525429 C78.39696345 373.49405666 93.08512978 373.49867425 107.77330606 373.49792381 C108.56451154 373.49788386 109.35571703 373.4978439 110.17089844 373.49780273 C110.96307328 373.49776185 111.75524812 373.49772097 112.57142825 373.49767885 C125.41067055 373.49727237 138.24988352 373.50684356 151.08911733 373.5209411 C164.28227927 373.53531263 177.4754269 373.54221088 190.66859686 373.54134732 C198.07160215 373.54101565 205.47457669 373.54374979 212.87757492 373.55452538 C219.83953723 373.56459436 226.80143361 373.5642871 233.76339912 373.55700874 C236.31714154 373.55596266 238.870888 373.5583272 241.42462349 373.5643692 C244.91347896 373.57208846 248.40211004 373.56744454 251.89096069 373.55973816 C253.40279987 373.5674535 253.40279987 373.5674535 254.94518125 373.57532471 C264.28781485 373.52979513 272.70176986 372.4490245 280.0625 366.3125 C287.67171883 358.28148412 288.36700789 349.84985277 288.54101562 339.25195312 C288.74558093 333.01021669 289.72312815 328.52874702 294.4375 324.0625 C299.35968522 320.78104319 303.10175381 319.70632242 309.0625 320.3125 C314.87940137 322.22968098 318.13424159 324.8073742 321.0625 330.3125 C325.47602546 343.55307639 322.02037032 360.83285923 316.77734375 373.390625 C313.30264028 380.32067427 308.51386318 385.85150544 303.0625 391.3125 C302.49789063 391.88871094 301.93328125 392.46492188 301.3515625 393.05859375 C290.60498142 403.1498955 276.28165296 406.77931426 261.97587585 406.70018005 C260.79635733 406.70556559 259.6168388 406.71095113 258.40157729 406.71649987 C255.15410392 406.72826738 251.9069632 406.72673842 248.65948737 406.71933305 C245.14674713 406.71458103 241.63406061 406.7271292 238.12133789 406.73735046 C231.24953768 406.75450485 224.37782905 406.75538538 217.506013 406.75013756 C211.91710871 406.74608791 206.32823139 406.74754884 200.73932838 406.75288582 C199.94235728 406.75363424 199.14538618 406.75438266 198.32426444 406.75515376 C196.70494128 406.75668533 195.08561813 406.75822367 193.46629498 406.75976873 C178.29634972 406.77348192 163.12645609 406.76806467 147.95651201 406.75658352 C134.09841273 406.74665508 120.24044703 406.75958717 106.38236835 406.78351771 C92.13138873 406.80794009 77.88047124 406.81750871 63.62947112 406.81086498 C55.63726117 406.80737938 47.64515388 406.80956101 39.65295982 406.82711601 C32.84851923 406.84187744 26.04425358 406.84242236 19.23981627 406.8250451 C15.77279552 406.81656444 12.30608675 406.81431273 8.83908272 406.82969666 C5.06912231 406.84294389 1.30000013 406.83132433 -2.46992493 406.81370544 C-3.54972085 406.82331045 -4.62951677 406.83291546 -5.74203378 406.84281152 C-20.75740917 406.69923916 -34.98603364 400.67777146 -45.99609375 390.44921875 C-52.62098221 383.15784252 -58.09213362 374.79214031 -60.9375 365.3125 C-61.27767245 364.19939359 -61.61784491 363.08628717 -61.96832561 361.93945026 C-63.36748449 356.25727446 -63.21710143 350.59073933 -63.19819641 344.76957703 C-63.20202196 343.51685228 -63.20584751 342.26412753 -63.20978898 340.97344142 C-63.22004185 337.51243802 -63.21789411 334.05153852 -63.21360838 330.5905267 C-63.21113619 326.85148773 -63.22016148 323.11247346 -63.22764587 319.3734436 C-63.24038159 312.0542086 -63.24218794 304.7350103 -63.23984561 297.41576608 C-63.23806089 291.46448314 -63.2398154 285.51321132 -63.24407005 279.5619297 C-63.24466524 278.71415367 -63.24526043 277.86637764 -63.24587366 276.99291143 C-63.24708544 275.27050775 -63.24829957 273.54810406 -63.24951603 271.82570038 C-63.2603874 255.6801125 -63.25823109 239.53454552 -63.25213119 223.38895646 C-63.24696341 208.63055676 -63.25821452 193.87222308 -63.27722941 179.11383643 C-63.2966194 163.94762737 -63.3048617 148.78144953 -63.30110615 133.615228 C-63.29919574 125.10551551 -63.30166599 116.5958592 -63.31582069 108.08615685 C-63.32775033 100.84100263 -63.32912173 93.59593917 -63.31703053 86.35078367 C-63.31115269 82.65724532 -63.31001185 78.96387286 -63.32203293 75.27034569 C-63.33493652 71.25889109 -63.32440121 67.24782919 -63.3117218 63.2363739 C-63.31909609 62.07935099 -63.32647037 60.92232808 -63.33406812 59.73024386 C-63.22330365 43.03274649 -56.79077227 27.76578567 -44.95703125 16.0078125 C-32.23304613 4.20549264 -16.90475673 0.19022607 0 0 Z " fill="#fff" transform="translate(83.9375,105.6875)"/>
</svg>
